<?xml version="1.0" encoding="utf-8"?>
<svg viewBox="0 0 500 500" width="500" height="500" xmlns="http://www.w3.org/2000/svg">
  <rect x="-1.955" y="-8.1" width="502.355" height="502.622" style="fill: rgb(255, 255, 255);"/>
  <path d="M 221.603 478.525 C 223.373 475.596 225.169 472.686 226.894 469.732 C 231.192 462.415 235.529 455.116 239.719 447.74 C 244.902 438.618 250.161 429.517 255.034 420.239 C 260.931 408.988 266.861 397.72 272.025 386.149 C 275.874 377.537 278.542 368.435 281.715 359.521 C 283.997 353.117 286.241 346.703 288.807 339.452 C 281.532 342.157 274.902 344.481 268.391 347.09 C 260.047 350.43 251.722 353.838 243.544 357.524 C 237.5 360.246 231.679 363.417 225.807 366.474 C 221.35 368.786 216.61 368.465 213.386 365.47 C 210.756 363.049 211.161 359.539 214.505 358.032 C 227.981 351.943 241.451 345.837 255.047 340.003 C 262.481 336.813 270.116 334.018 277.758 331.3 C 282.335 329.673 287.101 328.553 291.765 327.142 C 292.486 326.902 293.137 326.499 293.662 325.968 C 294.698 324.946 295.609 323.814 296.911 322.338 C 296.013 317.762 298.718 313.145 300.039 308.285 C 306.993 282.697 314.123 257.17 320.899 231.546 C 323.61 221.222 325.715 210.74 327.643 200.253 C 329.148 192.076 329.943 183.779 331.068 175.403 C 304.275 172.171 283.031 161.786 270.553 137.638 C 263.6 143.763 256.754 149.434 250.325 155.497 C 225.042 179.367 203.121 205.935 184.095 234.579 C 172.932 251.385 163.046 268.972 152.68 286.257 C 151.226 288.676 150.279 291.394 149.141 293.991 C 148.003 296.587 146.17 298.167 143.135 297.997 C 139.975 297.821 137.187 296.92 135.74 293.76 C 133.717 289.343 131.467 285.021 129.419 280.603 C 123.604 267.894 114.882 256.856 107.296 245.146 C 89.719 218.047 74.273 189.735 61.083 160.442 C 53.208 142.892 45.73 125.19 40.807 106.616 C 39.431 101.761 38.375 96.827 37.646 91.843 C 37.424 90.095 38.513 87.469 39.947 86.457 C 41.211 85.55 43.891 85.956 45.78 86.403 C 49.024 87.173 49.781 89.459 50.326 92.667 C 51.723 100.867 53.436 109.103 56.071 117.002 C 67.562 151.443 83.625 184.009 102.093 215.448 C 111 230.609 121.366 244.97 130.924 259.779 C 134.779 265.758 138.231 271.967 142.08 278.443 C 143.407 276.216 144.69 274.098 145.936 271.961 C 161.384 245.454 177.957 219.642 197.426 195.629 C 216.572 172.026 236.615 149.174 261.071 130.358 C 265.142 127.224 266.078 124.579 265.085 119.599 C 261.16 99.857 261.406 80.116 267.828 60.756 C 271.475 49.765 275.874 39.229 285.293 31.233 C 300.766 18.101 317.244 23.246 326.549 36.753 C 334.381 48.112 338.205 61.04 340.178 74.469 C 340.569 77.144 341.063 79.806 341.53 82.615 C 350.676 79.123 359.457 75.643 368.331 72.406 C 389.039 64.865 410.251 60.229 432.608 62.969 C 444.472 64.429 454.295 69.307 460.774 79.256 C 465.483 86.488 465.831 94.544 464.427 102.628 C 461.046 122.454 449.359 137.366 433.1 149.229 C 415.744 161.883 395.681 168.794 374.5 172.703 C 364.386 174.568 354.102 175.367 343.528 176.692 C 337.39 226.808 322.239 275.569 307.814 324.644 C 311.183 324.644 314.697 324.479 318.187 324.704 C 320.439 324.772 322.652 325.274 324.698 326.181 C 325.747 326.707 326.594 328.746 326.429 329.993 C 326.322 330.955 324.666 332.281 323.49 332.517 C 317.439 333.728 311.352 334.76 305.229 335.615 C 303.63 335.84 302.84 336.221 302.34 337.702 C 297.848 350.586 293.318 363.456 288.751 376.315 C 286.304 383.183 284.003 390.113 281.165 396.825 C 279.047 401.805 276.109 406.453 273.579 411.301 C 269.313 419.659 265.219 428.095 260.888 436.417 C 257.999 441.978 254.889 447.43 251.76 452.877 C 247.646 460.038 243.423 467.136 239.252 474.265 C 238.411 475.692 237.595 477.14 236.767 478.574 Z M 344.822 164.976 C 345.626 164.976 346.758 165.042 347.877 164.976 C 365 163.833 381.85 160.241 397.862 154.317 C 414.006 148.315 428.461 139.963 439.245 126.643 C 447.279 116.723 452.721 105.8 452.379 92.897 C 452.276 88.115 450.308 83.542 446.861 80.079 C 441.274 74.257 433.929 73.107 426.395 73.186 C 417.988 73.271 409.581 74.063 401.186 74.669 C 399.195 74.801 397.234 75.208 395.366 75.879 C 378.773 81.931 362.225 88.158 345.633 94.24 C 343.585 94.997 342.725 95.874 342.895 98.174 C 343.666 108.615 344.47 119.073 344.748 129.535 C 345.064 141.179 344.822 152.859 344.822 164.976 Z M 277.107 118.11 C 293.921 107.089 310.254 96.632 328.186 88.709 C 328.92 88.245 329.387 87.479 329.45 86.639 C 329.356 71.509 326.726 56.887 318.035 43.888 C 315.229 39.689 311.923 35.616 305.691 35.639 C 301.512 35.639 298.182 37.382 295.072 39.706 C 288.573 44.548 284.603 51.163 281.607 58.347 C 274.99 74.239 273.649 90.772 275.35 107.633 C 275.704 111.01 276.469 114.345 277.107 118.11 Z M 330.355 101.085 C 314.116 108.894 298.556 117.936 283.826 128.125 C 280.766 130.249 280.514 132.023 282.214 134.741 C 282.537 135.254 282.765 135.824 283.048 136.356 C 293.162 155.444 310.646 162.851 331.789 164.909 C 334.248 143.57 332.231 122.552 330.355 101.085 Z" style=""/>
  <path d="M 393.641 279.56 C 397.732 276.976 402.705 275.709 407.727 275.97 C 416.562 276.388 422.658 284.377 422.005 291.96 C 421.278 300.524 417.104 307.865 411.022 314.353 C 407.254 318.371 402.84 321.918 398.776 325.718 C 398.166 326.287 397.465 327.134 397.534 327.793 C 397.582 328.247 398.825 328.798 399.593 328.968 C 401.755 329.415 402.009 331.014 400.884 331.831 C 398.996 333.204 396.216 335.098 394.328 334.73 C 387.312 333.349 379.995 331.994 373.734 329.065 C 359.422 322.366 350.292 312.077 351.232 296.989 C 351.96 285.394 358.433 276.787 370.694 272.044 C 377.784 269.302 386.269 271.566 390.834 277.006 C 391.712 277.905 392.65 278.758 393.641 279.56 Z M 406.877 288.887 L 405.703 288.746 C 402.112 291.168 400.465 294.478 400.348 298.502 C 400.238 302.436 398.556 304.615 395.117 305.432 C 391.163 306.364 385.425 301.626 384.937 297.474 C 384.576 293.998 383.779 290.568 382.562 287.245 C 380.791 282.67 376.954 281.878 372.952 285.37 C 366.423 291.041 362.998 298.121 365.867 306.466 C 368.264 313.427 373.831 317.263 381.32 319.593 C 384.066 320.452 385.7 319.388 387.326 317.972 C 388.754 316.761 389.88 315.223 391.294 313.972 C 398.275 307.792 404.968 301.456 406.863 292.444 C 406.988 291.261 406.992 290.07 406.877 288.887 Z" style=""/>
  <path d="M 376.055 365.607 C 375.797 364.513 375.432 363.442 374.963 362.406 C 373.686 359.917 373.865 357.667 376.178 355.833 C 377.99 354.392 383.826 354.464 385.576 355.929 C 389.564 359.264 392.351 363.065 391.857 368.287 C 391.788 368.947 393.758 370.042 394.987 370.46 C 399.106 371.84 403.705 372.433 407.343 374.412 C 410.982 376.391 413.912 379.483 416.761 382.389 C 418.861 384.53 417.764 389.196 415.23 391.031 C 413.418 392.349 408.64 391.792 406.464 389.984 C 404.09 387.998 402.949 384.676 399.023 384.374 C 394.424 384.022 389.798 383.562 385.212 383.72 C 383.907 383.763 382.404 385.632 381.498 386.933 C 377.826 392.216 370.515 394.861 364.2 393.536 C 356.937 392.005 353.697 384.979 358.797 380.258 C 362.126 377.177 366.644 374.763 371.153 373.08 C 374.984 371.646 375.945 369.565 376.055 365.607 Z" style=""/>
  <path d="M 241.009 302.884 C 241.098 295.416 244.894 287.88 247.668 280.129 C 251.292 269.974 254.999 259.843 258.651 249.7 C 259.598 247.055 262.969 245.306 265.921 245.983 C 270.287 246.989 273.334 250.402 272.463 253.651 C 271.697 256.387 270.76 259.081 269.655 261.724 C 265.103 272.999 260.195 284.171 256.015 295.549 C 254.182 300.536 253.811 305.934 252.692 311.133 C 252.452 312.258 251.78 314.267 251.402 314.25 C 249 314.14 246.308 314.056 244.304 313.038 C 241.324 311.562 240.714 308.869 241.009 302.884 Z" style=""/>
  <path d="M 409.313 199.281 C 413.494 199.281 417.667 201.847 418.738 205.164 C 419.596 207.826 416.678 208.353 415.244 209.721 C 414.077 210.834 412.306 211.736 411.771 213.044 C 409.025 219.743 406.575 226.545 404.007 233.311 C 403.553 234.522 402.888 235.642 402.531 236.852 C 401.653 239.878 400.362 242.722 401.646 246.135 C 402.875 249.397 399.669 251.897 395.653 251.534 C 390.093 251.025 386.777 246.529 387.964 241.783 C 389.255 236.621 389.509 231.229 391.163 226.177 C 393.491 219.047 396.656 212.118 399.524 205.139 C 401.165 201.194 404.597 199.347 409.313 199.281 Z" style=""/>
  <path d="M 438.81 250.74 L 435.529 249.488 C 430.58 252.943 425.115 251.085 423.536 245.095 C 422.364 240.576 421.613 235.982 421.292 231.357 C 420.791 224.397 423.097 217.848 426.29 211.561 C 427.738 208.698 431.341 207.56 435.042 208.48 C 439.434 209.575 444.041 215.391 441.301 219.712 C 438.151 224.682 437.437 230.297 436.942 236.016 C 436.586 240.253 436.799 244.071 438.756 247.896 C 439.125 248.617 438.81 249.609 438.81 250.74 Z" style=""/>
  <path d="M 443.663 241.003 C 444.487 232.47 448.352 224.663 454.317 217.764 C 457.256 214.331 462.457 213.086 466.961 214.738 C 472.453 216.898 472.94 220.923 468.335 224.24 C 462.245 228.657 460.29 235.041 458.834 241.463 C 458.305 243.811 458.676 246.426 459.191 248.828 C 459.877 252.09 457.584 254.433 453.864 253.797 C 447.534 252.702 443.691 247.987 443.663 241.003 Z" style=""/>
</svg>